<svg width="49" height="51" viewBox="0 0 49 51" fill="none" xmlns="http://www.w3.org/2000/svg">
<path d="M0.590961 16.4693C0.26474 17.3194 0.541534 18.2783 1.21375 18.9011L5.49418 22.796C5.38544 23.6165 5.32613 24.4568 5.32613 25.3069C5.32613 26.1571 5.38544 26.9974 5.49418 27.8179L1.21375 31.7128C0.541534 32.3355 0.26474 33.2944 0.590961 34.1446C1.02592 35.321 1.54985 36.4578 2.14299 37.5353L2.60761 38.3361C3.26005 39.4235 3.99158 40.4516 4.79231 41.4302C5.38544 42.1321 6.34434 42.3792 7.21426 42.1024L12.7205 40.3428C14.0452 41.361 15.5972 42.2112 17.0701 42.8636L18.3058 48.5083C18.5035 49.398 19.1955 50.0306 20.105 50.2679C21.4692 50.4953 22.8729 50.6139 24.3953 50.6139C25.7397 50.6139 27.1435 50.4953 28.5077 50.2679C29.4171 50.0306 30.1091 49.398 30.3068 48.5083L31.5425 42.8636C33.1044 42.2112 34.5675 41.361 35.8922 40.3428L41.3944 42.1024C42.2683 42.3792 43.2322 42.1321 43.8174 41.4302C44.6191 40.4516 45.3506 39.4235 46.0031 38.3361L46.4657 37.5353C47.0658 36.4578 47.5877 35.321 48.0257 34.1446C48.3459 33.2944 48.0761 32.3355 47.3979 31.7128L43.1215 27.8179C43.2302 26.9974 43.2865 26.1571 43.2865 25.3069C43.2865 24.4568 43.2302 23.6165 43.1215 22.796L47.3979 18.9011C48.0761 18.2783 48.3459 17.3293 48.0257 16.4693C47.5877 15.2929 47.0648 14.1561 46.4657 13.0785L46.0041 12.2778C45.3506 11.1904 44.6191 10.1623 43.8174 9.18859C43.2322 8.48178 42.2683 8.23662 41.3944 8.51539L35.8922 10.2711C34.5675 9.2489 33.1044 8.39874 31.5425 7.75322L30.3068 2.10858C30.1091 1.21098 29.4171 0.49823 28.5077 0.346982C27.1435 0.118725 25.7397 0 24.3063 0C22.8729 0 21.4692 0.118725 20.105 0.346982C19.1955 0.49823 18.5035 1.21098 18.3058 2.10858L17.0701 7.75322C15.5972 8.39874 14.0452 9.2489 12.7205 10.2711L7.21426 8.51539C6.34434 8.23662 5.38544 8.48178 4.79231 9.18859C3.99158 10.1623 3.26005 11.1904 2.60761 12.2778L2.14299 13.0785C1.54985 14.1561 1.02592 15.2929 0.590961 16.4693ZM24.3063 33.2154C19.9369 33.2154 16.3979 29.6763 16.3979 25.218C16.3979 20.9375 19.9369 17.3096 24.3063 17.3096C28.6757 17.3096 32.2148 20.9375 32.2148 25.218C32.2148 29.6763 28.6757 33.2154 24.3063 33.2154Z" fill="#F1FFEB"/>
</svg>
