<svg width="51" height="51" viewBox="0 0 51 51" fill="none" xmlns="http://www.w3.org/2000/svg">
<g clip-path="url(#clip0_94_27)">
<path d="M46.994 41.1206H44.0783L28.5914 5.21516C28.0618 3.98253 26.7195 3.16309 25.2125 3.16309C23.7055 3.16309 22.3499 3.98243 21.8212 5.21516L6.52975 41.1206H3.61402C1.61787 41.1206 -0.000976562 42.5351 -0.000976562 44.2837C-0.000976562 46.0323 1.61787 47.4468 3.61402 47.4468H14.459C16.4552 47.4468 18.074 46.0323 18.074 44.2837C18.074 42.5351 16.4552 41.1206 14.459 41.1206H14.2557L16.1874 36.3759H34.2173L36.149 41.1206C34.1529 41.1206 32.534 42.5351 32.534 44.2837C32.534 46.0323 34.1529 47.4468 36.149 47.4468H46.994C48.9902 47.4468 50.609 46.0323 50.609 44.2837C50.609 42.5351 48.9936 41.1206 46.994 41.1206ZM19.0004 30.0497L25.304 15.3312L31.6099 30.0497H19.0004Z" fill="#F1FFEB"/>
</g>
<defs>
<clipPath id="clip0_94_27">
<rect width="50.61" height="50.61" fill="white" transform="translate(-0.000976562)"/>
</clipPath>
</defs>
</svg>
