<svg width="51" height="51" viewBox="0 0 51 51" fill="none" xmlns="http://www.w3.org/2000/svg">
<path d="M0.0172615 25.2575C0.0172615 27.0369 1.33533 28.4308 2.82914 28.4308H5.64103L5.57952 44.2575C5.57952 44.5343 5.59709 44.7913 5.62345 45.0582V46.6597C5.62345 48.8444 7.19635 50.6139 9.13831 50.6139H10.5442C10.6409 50.6139 10.7376 50.5249 10.8342 50.604C10.9572 50.5249 11.0803 50.6139 11.2033 50.6139H16.168C18.11 50.6139 19.6829 48.8444 19.6829 46.6597V37.9604C19.6829 36.2107 20.9394 34.797 22.4947 34.797H28.1185C29.6738 34.797 30.9304 36.2107 30.9304 37.9604V46.6597C30.9304 48.8444 32.5033 50.6139 34.4452 50.6139H39.3573C39.4891 50.6139 39.6209 50.604 39.7527 50.5941C39.8581 50.604 39.9636 50.6139 40.069 50.6139H41.475C43.416 50.6139 44.9898 48.8444 44.9898 46.6597V35.5879C44.9898 35.4989 44.9872 35.4001 44.9819 35.3111V28.4308H47.7973C49.3816 28.4308 50.6136 27.0369 50.6136 25.2575C50.6136 24.3678 50.3496 23.577 49.734 22.885L27.2046 0.792424C26.5896 0.0990529 25.8866 0 25.2715 0C24.6564 0 23.9534 0.198106 23.4174 0.693371L0.983845 22.885C0.280876 23.577 -0.0793953 24.3678 0.0172615 25.2575Z" fill="#F1FFEB"/>
</svg>
