<svg width="40" height="46" viewBox="0 0 40 46" fill="none" xmlns="http://www.w3.org/2000/svg">
<g clip-path="url(#clip0_66_46)">
<path d="M32.8571 17.25V12.9375C32.8571 5.79223 27.0982 0 20 0C12.9018 0 7.14286 5.79223 7.14286 12.9375V17.25H5.71429C2.5625 17.25 0 19.8285 0 23V40.25C0 43.4215 2.5625 46 5.71429 46H34.2857C37.442 46 40 43.4215 40 40.25V23C40 19.8285 37.442 17.25 34.2857 17.25H32.8571ZM27.1429 17.25H12.8571V12.9375C12.8571 8.9682 16.0536 5.75 20 5.75C23.9464 5.75 27.1429 8.9682 27.1429 12.9375V17.25Z" fill="#161925"/>
</g>
<defs>
<clipPath id="clip0_66_46">
<rect width="40" height="46" fill="white" transform="matrix(-1 0 0 1 40 0)"/>
</clipPath>
</defs>
</svg>
