<svg width="51" height="52" viewBox="0 0 51 52" fill="none" xmlns="http://www.w3.org/2000/svg">
<g clip-path="url(#clip0_223_61)">
<path d="M25.3066 25.9208C17.3191 25.9208 10.8455 20.2554 10.8455 13.2674C10.8455 6.27929 17.3191 0.613892 25.3066 0.613892C33.2941 0.613892 39.7677 6.27929 39.7677 13.2674C39.7677 20.2554 33.2941 25.9208 25.3066 25.9208ZM19.5786 30.6659H31.0345C41.8453 30.6659 50.6135 38.3371 50.6135 47.7975C50.6135 49.6896 48.8601 51.2248 46.6977 51.2248H3.91318C1.75079 51.2278 -0.000358582 49.6955 -0.000358582 47.7975C-0.000358582 38.3371 8.76669 30.6659 19.5786 30.6659Z" fill="#EBF8FF"/>
</g>
<defs>
<clipPath id="clip0_223_61">
<rect width="50.6139" height="50.6139" fill="white" transform="matrix(-1 0 0 1 50.6135 0.613892)"/>
</clipPath>
</defs>
</svg>
