<svg width="51" height="51" viewBox="0 0 51 51" fill="none" xmlns="http://www.w3.org/2000/svg">
<path d="M18.4975 6.32244C17.762 6.46479 17.4457 7.60162 17.9834 8.27582L20.9886 11.9028L20.2769 17.0433C20.2373 17.9725 20.9333 18.6843 21.6134 18.2592L25.2908 15.8373L28.9999 18.2889C29.68 18.7139 30.4471 18.0022 30.3364 17.0828L29.6246 11.9325L32.6298 8.27582C33.1676 7.60162 32.8513 6.46479 32.1158 6.32244L27.9797 5.57707L26.1133 0.853963C25.7732 0.00173189 24.8084 0.0372209 24.5 0.853963L22.6336 5.57707L18.4975 6.32244ZM20.2452 25.535C18.8454 25.535 17.7145 26.9486 17.7145 28.6983V47.6785C17.7145 49.4283 18.8454 50.8419 20.2452 50.8419H30.368C31.7678 50.8419 32.8987 49.4283 32.8987 47.6785V28.6983C32.8987 26.9486 31.7678 25.535 30.368 25.535H20.2452ZM37.9601 31.8617C36.5603 31.8617 35.4294 33.2753 35.4294 35.0251V47.6785C35.4294 49.4283 36.5603 50.8419 37.9601 50.8419H48.0829C49.4803 50.8419 50.6136 49.4283 50.6136 47.6785V35.0251C50.6136 33.2753 49.4803 31.8617 48.0829 31.8617H37.9601ZM15.1839 41.3518C15.1839 39.6021 14.0529 38.1884 12.6532 38.1884H2.53038C1.13059 38.1884 -0.000312805 39.6021 -0.000312805 41.3518V47.6785C-0.000312805 49.4283 1.13059 50.8419 2.53038 50.8419H12.6532C14.0529 50.8419 15.1839 49.4283 15.1839 47.6785V41.3518Z" fill="#F1FFEB"/>
</svg>
