<svg width="56" height="63" viewBox="0 0 56 63" fill="none" xmlns="http://www.w3.org/2000/svg">
<path d="M27.9896 0C28.948 0 29.823 0.645996 30.2396 1.66359L37.3855 19.0477L53.3542 21.8408C54.2917 22.0008 55.0625 22.776 55.3646 23.8342C55.6563 24.9047 55.4167 26.0736 54.75 26.8488L43.1667 40.4086L45.9063 59.5424C46.0625 60.6498 45.6771 61.7818 44.8959 62.434C44.125 63.0861 43.0105 63.1723 42.2605 62.6432L27.9896 53.6361L13.6355 62.6432C12.8855 63.1723 11.8646 63.0861 11.0834 62.434C10.3125 61.7818 9.92712 60.6498 9.98962 59.5424L12.8125 40.4086L1.24066 26.8488C0.567747 26.0736 0.329206 24.9047 0.625039 23.8342C0.919831 22.776 1.69796 22.0008 2.63441 21.8408L18.5938 19.0477L25.7396 1.66359C26.1667 0.645873 27.0313 0 27.9896 0ZM27.9896 9.71455L22.5209 23.0344C22.1563 23.908 21.448 24.5232 20.6355 24.6709L8.31046 26.8119L17.2605 37.2832C17.8334 37.96 18.0938 38.932 17.9584 39.8795L15.8542 54.5959L26.8125 47.6807C27.5521 47.2131 28.4375 47.2131 29.1667 47.6807L40.125 54.5959L38.0209 39.8795C37.8855 38.932 38.1563 37.96 38.7292 37.2832L47.6771 26.8119L35.3542 24.6709C34.5313 24.5232 33.823 23.908 33.4688 23.0344L27.9896 9.71455Z" fill="#161925"/>
</svg>
